<svg xmlns="http://www.w3.org/2000/svg" viewBox="0 0 24 24" fill="currentColor">
  <path d="M13.49 5.48c1.1 0 2-.9 2-2s-.9-2-2-2-2 .9-2 2 .9 2 2 2zm-3.6 13.9l1-4.4 2.1 2v6h2v-7.5l-2.1-2 .6-3c1.3 1.5 3.3 2.5 5.5 2.5v-2c-1.9 0-3.5-1-4.3-2.4l-1-1.6c-.4-.6-1-1-1.7-1-.3 0-.5.1-.8.1l-5.2 2.2v4.7h1.8c.4 0 .8-.3.9-.7l.9-4.4 2.1 2-3.3 3.9z"/>
  <path d="M7 17v-2.5l2.1-2 .6-3c.4-.4.8-.7 1.3-.7.5 0 .9.2 1.2.6l.9 4.4c.1.4.5.7.9.7h1.8v-4.7l-5.2-2.2c-.3-.1-.5-.1-.8-.1-.7 0-1.3.4-1.7 1l-1 1.6c-.8 1.4-2.4 2.4-4.3 2.4v2c2.2 0 4.2-1 5.5-2.5z"/>
</svg>